<svg width="80" height="80" viewBox="0 0 80 80" fill="none" xmlns="http://www.w3.org/2000/svg">
<g clip-path="url(#clip0_60370_27404)">
<path d="M40 80C62.0914 80 80 62.0914 80 40C80 17.9086 62.0914 0 40 0C17.9086 0 0 17.9086 0 40C0 62.0914 17.9086 80 40 80Z" fill="#4B8B96"/>
<path d="M62.0539 24.5547C62.0539 27.2578 62.0461 29.6953 62.0617 32.1406C62.0617 32.7656 61.6477 33.1172 61.2805 33.5078C59.3586 35.5547 57.4524 37.6328 55.4836 39.6406C54.8196 40.3203 54.8586 40.7578 55.4914 41.4219C57.4289 43.4531 59.2961 45.5625 61.2258 47.6094C61.7571 48.1719 62.0149 48.75 61.9992 49.5391C61.9524 51.4375 61.9836 53.3359 61.9836 55.2188C61.4289 55.4297 61.2883 54.9766 61.0696 54.7422C57.0149 50.3359 52.9758 45.9141 48.9133 41.5156C48.0852 40.6172 47.843 39.7344 48.7258 38.7656C52.9524 34.1484 57.1867 29.5313 61.4211 24.9219C61.5071 24.8438 61.6399 24.8047 62.0539 24.5547Z" fill="#F8FAFA"/>
<path d="M24.8203 40.5314C22.6328 38.1564 20.5703 35.8673 18.4531 33.6408C17.8125 32.9689 17.5312 32.2736 17.5547 31.3439C17.6094 29.172 17.5703 27.0002 17.5703 24.797C18.25 24.7267 18.4375 25.2892 18.7344 25.6173C22.6406 29.8517 26.5234 34.1017 30.4062 38.3517C31.6641 39.7267 31.6641 40.3595 30.4297 41.7111C26.5469 45.9533 22.6562 50.1955 18.75 54.4377C18.4531 54.758 18.2422 55.1877 17.5312 55.4064C17.5312 53.0939 17.5234 50.8673 17.5391 48.633C17.5391 48.1798 17.9609 47.9533 18.2266 47.6564C20.3828 45.3205 22.5391 43.0002 24.8203 40.5314Z" fill="#F8FAFA"/>
<path d="M32.7737 39.9609C32.8049 36.0859 35.9377 32.9609 39.8049 32.9609C43.7112 32.9609 46.9143 36.1953 46.8596 40.0938C46.8049 44.0156 43.5862 47.1562 39.6721 47.0938C35.8362 47.0391 32.7424 43.8359 32.7737 39.9609ZM33.3127 40C33.3049 43.7031 36.1409 46.5703 39.8205 46.5625C43.4846 46.5547 46.3518 43.6484 46.3205 39.9766C46.2893 36.3438 43.469 33.5078 39.8596 33.4922C36.1565 33.4688 33.3205 36.2891 33.3127 40Z" fill="#F8FAFA"/>
<path d="M60.5625 20.6875C56.0234 25.8437 51.4844 30.9922 46.9453 36.1484C46.7656 35.9922 46.5938 35.8359 46.4141 35.6797C50.9531 30.5234 55.4922 25.3672 60.0391 20.2109C60.2109 20.3672 60.3828 20.5234 60.5625 20.6875Z" fill="#F8FAFA"/>
<path d="M19.1094 59.25C23.6484 54.0938 28.1875 48.9375 32.875 43.6094C32.9453 44.7734 20.7266 58.9062 19.4141 59.5312C19.3125 59.4375 19.2109 59.3438 19.1094 59.25Z" fill="#F8FAFA"/>
<path d="M19.6328 20.2109C24.1719 25.3672 28.7031 30.5312 33.2422 35.6875C33.0703 35.8359 32.8984 35.9922 32.7266 36.1406C28.1875 30.9844 23.6406 25.8281 19.1016 20.6719C19.2734 20.5156 19.4531 20.3672 19.6328 20.2109Z" fill="#F8FAFA"/>
<path d="M60.0234 59.7266C55.4844 54.5703 50.9453 49.4141 46.25 44.0781C47.4375 44.1719 59.9531 58.1875 60.3047 59.4766C60.2109 59.5547 60.1172 59.6406 60.0234 59.7266Z" fill="#F8FAFA"/>
<path d="M39.8672 46.5625C43.4829 46.5625 46.4141 43.6314 46.4141 40.0156C46.4141 36.3999 43.4829 33.4688 39.8672 33.4688C36.2514 33.4688 33.3203 36.3999 33.3203 40.0156C33.3203 43.6314 36.2514 46.5625 39.8672 46.5625Z" fill="#CE2328"/>
</g>
<defs>
<clipPath id="clip0_60370_27404">
<rect width="80" height="80" fill="white"/>
</clipPath>
</defs>
</svg>
