<svg width="32" height="32" viewBox="0 0 32 32" fill="none" xmlns="http://www.w3.org/2000/svg">
<path d="M7.20456 13.3345L5.00255 14.6266C5.04222 14.7539 5.08757 14.8756 5.13574 15.0001C3.9228 16.046 3.15479 17.5761 3.15479 19.2805C3.15479 21.4082 4.34789 23.262 6.11347 24.2443C6.24383 23.9869 6.4082 23.7462 6.60091 23.5332L7.20456 13.3345Z" fill="#00AAE6"/>
<path d="M6.60547 23.5332C6.9002 23.2095 7.25729 22.9411 7.66255 22.7529C7.65121 22.6754 7.64554 22.5952 7.64554 22.515C7.64554 21.4968 8.4929 20.6695 9.53581 20.6695C9.83055 20.6695 10.1083 20.7359 10.3577 20.8521L7.20627 13.3345L6.60547 23.5332Z" fill="#38C6F4"/>
<path d="M11.4239 22.5151C11.4239 22.7724 11.3701 23.0159 11.2737 23.2373C11.6138 23.5278 11.8944 23.8875 12.0899 24.2914C12.4073 24.0341 12.8182 23.8792 13.2632 23.8792C13.7336 23.8792 14.1587 24.0535 14.4846 24.3357V23.7491L10.877 21.2202C11.217 21.5522 11.4239 22.0088 11.4239 22.5151Z" fill="#38C6F4"/>
<path d="M4.746 12.8188C4.746 12.8604 4.74316 12.9019 4.74316 12.9434C4.74316 13.5299 4.83385 14.0944 5.00389 14.6256L7.2059 13.3335L4.746 12.8188Z" fill="#38C6F4"/>
<path d="M6.64877 8.73047C5.50951 9.74868 4.78401 11.2013 4.75 12.8199L7.2099 13.3345L6.64877 8.73047Z" fill="#01ADE6"/>
<path d="M9.41392 7.35205C8.35968 7.56233 7.41029 8.0493 6.64795 8.73272L7.20908 13.3368L9.41392 7.35205Z" fill="#008DC8"/>
<path d="M12.4073 12.3083C12.515 10.3023 13.0563 8.4181 13.9348 6.76074C13.5919 7.05403 13.283 7.38606 13.0166 7.75128C12.2769 7.42203 11.4551 7.23664 10.5907 7.23664C10.1883 7.23664 9.79153 7.27538 9.41178 7.35285L7.2041 13.3348L12.4073 12.3083Z" fill="#0095CA"/>
<path d="M22.5596 10.3095C21.5224 9.39923 20.1507 8.84308 18.6459 8.84308C18.1159 8.84308 17.6001 8.91226 17.1099 9.0423C16.9143 8.69091 16.6791 8.36165 16.4155 8.06006C16.8265 9.09487 17.1155 10.2016 17.2572 11.3554L22.5596 10.3095Z" fill="#0095CA"/>
<path d="M10.3561 20.8514L12.4957 19.1664C11.7334 19.2217 10.8804 19.2854 10.4043 19.3407V18.9118L12.9123 16.7675C12.5723 15.6026 12.3909 14.3603 12.3909 13.0571C12.3909 12.8053 12.3994 12.5563 12.4107 12.3101L7.20752 13.3366L10.3561 20.8514Z" fill="#008DC8"/>
<path d="M17.3645 13.0584C17.3645 13.905 17.2852 14.724 17.1406 15.5126L23.0835 10.8338C22.922 10.6484 22.7434 10.4714 22.5592 10.3081L17.2597 11.3512C17.3305 11.9129 17.3645 12.4801 17.3645 13.0584Z" fill="#008DC8"/>
<path d="M16.8413 16.7675L18.3093 18.0236L20.8174 17.1327L23.4842 11.3472C23.3595 11.1701 23.2263 10.9958 23.0817 10.8325L17.1389 15.5113C17.0595 15.9402 16.9603 16.358 16.8413 16.7675Z" fill="#005496"/>
<path d="M10.3555 20.8528L14.0878 19.5275C14 19.3781 13.9178 19.2287 13.8356 19.0737C13.5579 19.0959 13.0506 19.1318 12.4951 19.1706L10.3555 20.8528Z" fill="#005496"/>
<path d="M27.3555 23.7566C28.6053 22.7522 29.4214 21.2553 29.4866 19.5703L27.5709 22.6775L27.3555 23.7566Z" fill="#004A88"/>
<path d="M19.3508 18.9131V19.3419C18.5289 19.2423 16.5791 19.1233 15.916 19.0708C15.8196 19.2534 15.7204 19.4305 15.6156 19.6075L16.1314 20.5261H15.2642V24.1867C15.5844 23.9239 15.9953 23.7662 16.4459 23.7662C16.6755 23.7662 16.8937 23.8077 17.0949 23.8824C17.2338 23.0606 17.965 22.4325 18.8463 22.4325C19.2232 22.4325 19.569 22.546 19.8552 22.7424C20.0366 22.5902 20.252 22.4713 20.4872 22.3993V22.3827C20.4872 21.5333 21.1929 20.8443 22.0629 20.8443C22.0941 20.8443 22.1224 20.8471 22.1508 20.8499L20.8159 17.1284L18.3079 18.0194L19.3508 18.9131Z" fill="#007EBA"/>
<path d="M10.8798 21.2197L14.4874 23.7486V20.528H13.6202L14.136 19.6094C14.119 19.5817 14.1048 19.554 14.0878 19.5264L10.3555 20.8517C10.551 20.943 10.7296 21.0703 10.8798 21.2197Z" fill="#007EBA"/>
<path d="M20.8203 17.1338L22.1551 20.8552C22.9826 20.8995 23.6401 21.5691 23.6401 22.3881C23.6401 22.46 23.6345 22.532 23.6231 22.6039C24.5413 22.9996 25.2413 23.7937 25.4936 24.7593C26.1765 24.5352 26.8057 24.1949 27.3527 23.7577L27.568 22.6786L20.8203 17.1338Z" fill="#005E9E"/>
<path d="M28.815 16.6812L20.8203 17.1349L27.568 22.6797L29.4838 19.5725C29.4866 19.4978 29.4895 19.4231 29.4895 19.3457C29.4895 18.3828 29.2458 17.4752 28.815 16.6812Z" fill="#0095CA"/>
<path d="M28.815 16.6804C27.9506 15.0867 26.3353 13.9412 24.428 13.6894C24.2948 12.8317 23.966 12.0376 23.4871 11.3486L20.8203 17.1342L28.815 16.6804Z" fill="#004185"/>
<path d="M14.8667 11.6196C15.3785 11.6196 15.7934 11.2145 15.7934 10.7148C15.7934 10.2151 15.3785 9.81006 14.8667 9.81006C14.3548 9.81006 13.9399 10.2151 13.9399 10.7148C13.9399 11.2145 14.3548 11.6196 14.8667 11.6196Z" fill="#0095CA"/>
<path d="M14.8706 13.714C15.2056 13.714 15.4771 13.4489 15.4771 13.1219C15.4771 12.7949 15.2056 12.5298 14.8706 12.5298C14.5357 12.5298 14.2642 12.7949 14.2642 13.1219C14.2642 13.4489 14.5357 13.714 14.8706 13.714Z" fill="#008DC8"/>
</svg>
