<svg width="80" height="80" viewBox="0 0 80 80" fill="none" xmlns="http://www.w3.org/2000/svg">
<path d="M40.0527 43.9008L36.4613 36.6242L28.4316 35.4578L34.2418 29.7945L32.8707 21.7969L40.0527 25.5727L47.2348 21.7969L45.8629 29.7945L51.673 35.4578L43.6434 36.6242L40.0527 43.9008Z" fill="#F3F3F3"/>
<path d="M2.6922 54.4531C2.76408 54.6391 2.83752 54.8245 2.91252 55.0094H8.97424V49.4672L11.3758 47.4359L14.5164 48.8219V52.9789H17.9344L18.95 51.6859L20.2477 52.8852V42.2656H22.0031L22.7422 37.0922L23.7578 42.0805H24.6813L25.3258 39.7656V53.9922H27.4508V39.8602H30.961L32.0695 40.8758V54.5477L33.4508 57.0422V50.2984L34.9352 48.7281V46.6031L37.0602 46.9727V54.6406L39.9242 55.6562V37.0883H51.0985V52.5156L53.9625 47.4375V39.4906L54.9781 38.6594V36.257H56.1789V32.2852L57.5188 33.625V36.35H59.5055V40.7812L60.1524 41.1508V42.5391L62.3688 42.8125L63.3844 45.7688V54.6406H65.6016V38.9375H66.525V32.9312H69.0196V39.2133H70.4977V42.4469H71.8836V45.5875H75.2094V53.9938H77.4828C79.1527 49.5174 80.0052 44.7776 80 40C80 17.9086 62.0914 0 40 0C17.9086 0 1.74328e-05 17.9086 1.74328e-05 40C-0.00386211 44.154 0.639802 48.2833 1.90783 52.2391H2.68908L2.6922 54.4531Z" fill="#F3F3F3"/>
<path d="M40 80C53.0578 80 64.6539 73.7422 71.9531 64.0625H8.04688C15.3461 73.743 26.9422 80 40 80Z" fill="#F3F3F3"/>
<path d="M75.209 53.996V45.5897H71.8832V42.4491H70.498V39.2155H69.0199V32.9335H66.5254V38.9382H65.602V54.6413H63.3848V45.7741L62.3691 42.8179L60.152 42.5405V41.1554L59.5051 40.7835V36.3515H57.5184V33.6265L56.1785 32.2866V36.2593H54.9785V38.6608L53.9629 39.4921V47.4374L51.0988 52.5155V37.0905H39.9207V55.6593L37.0566 54.6437V46.9757L34.9348 46.6062V48.7312L33.4504 50.3007V57.0444L32.0645 54.5499V40.878L30.9559 39.8624H27.4496V53.996H25.3254V39.7679L24.6785 42.0772H23.7543L22.7387 37.089L21.9988 42.2679H20.2473V52.8929L18.9504 51.6866L17.9348 52.9796H14.516V48.8226L11.3754 47.4366L8.97383 49.4679V55.0108H2.91211C4.22085 58.2398 5.94643 61.2836 8.04492 64.0648H71.9512C74.2697 60.9923 76.1317 57.6007 77.4793 53.9952L75.209 53.996Z" fill="#CFE0E8"/>
<path d="M2.69336 52.2397H1.91211C2.15013 52.9866 2.41055 53.7246 2.69336 54.4538V52.2397Z" fill="#CFE0E8"/>
<path d="M51.0809 26.8874C51.0261 25.5862 50.6883 24.3127 50.091 23.1554C49.3787 21.7502 48.3492 20.53 47.084 19.5913C45.7669 18.6006 44.2505 17.9076 42.6395 17.5601C41.9521 17.4084 41.2528 17.3172 40.5496 17.2874C40.5168 17.2839 40.4841 17.2785 40.452 17.271H39.5965C39.5606 17.2783 39.5243 17.2838 39.4879 17.2874C36.8316 17.4226 34.5121 18.2983 32.5457 19.9296C31.112 21.0974 30.0352 22.6444 29.4379 24.3944C29.2298 24.9983 29.088 25.6231 29.0152 26.2577C28.991 26.4718 28.973 26.6866 28.9504 26.9007C28.9449 26.9342 28.9374 26.9673 28.9277 26.9999V27.6562C28.9444 27.7042 28.957 27.7536 28.9652 27.8038C29.0362 28.5105 29.1703 29.2094 29.366 29.8921C29.7092 31.1277 30.1155 32.3449 30.5832 33.539C31.2441 35.2765 31.9785 36.989 32.7426 38.6913C33.8746 41.2132 35.0793 43.7062 36.3199 46.1843C37.4991 48.5384 38.7126 50.8775 39.9605 53.2015C39.977 53.2319 39.9949 53.2616 40.023 53.3101C40.0504 53.2632 40.0715 53.2319 40.0895 53.1952C40.5973 52.2382 41.1098 51.2835 41.6105 50.3233C43.341 47.0046 45.0145 43.6616 46.5832 40.2757C47.4293 38.4491 48.2426 36.6108 48.9918 34.7491C49.4371 33.6421 49.8582 32.5272 50.2301 31.3976C50.5018 30.5964 50.7279 29.7805 50.9074 28.9538C51.0013 28.557 51.0588 28.1525 51.0793 27.7452C51.0827 27.715 51.089 27.6852 51.098 27.6562V26.9991C51.0899 26.9623 51.0842 26.925 51.0809 26.8874ZM40.0129 36.5952C38.3827 36.5952 36.7892 36.1118 35.4338 35.2062C34.0784 34.3005 33.0219 33.0132 32.3981 31.5072C31.7743 30.0011 31.611 28.3439 31.9291 26.7451C32.2471 25.1462 33.0321 23.6776 34.1848 22.5249C35.3375 21.3722 36.8061 20.5872 38.4049 20.2692C40.0037 19.9512 41.661 20.1144 43.167 20.7382C44.6731 21.3621 45.9604 22.4185 46.866 23.7739C47.7717 25.1293 48.2551 26.7229 48.2551 28.353C48.2551 29.4354 48.0419 30.5072 47.6277 31.5072C47.2135 32.5072 46.6064 33.4158 45.841 34.1811C45.0756 34.9465 44.167 35.5536 43.167 35.9678C42.1671 36.382 41.0953 36.5952 40.0129 36.5952Z" fill="#F46101"/>
<path d="M40.0129 22.4897C38.8526 22.4897 37.7184 22.8338 36.7537 23.4784C35.789 24.123 35.0371 25.0392 34.593 26.1112C34.149 27.1831 34.0329 28.3627 34.2592 29.5006C34.4856 30.6386 35.0443 31.6839 35.8647 32.5043C36.6851 33.3248 37.7304 33.8835 38.8684 34.1098C40.0064 34.3362 41.1859 34.22 42.2579 33.776C43.3298 33.332 44.246 32.5801 44.8906 31.6154C45.5352 30.6506 45.8793 29.5164 45.8793 28.3562C45.8793 26.8003 45.2612 25.3081 44.1611 24.208C43.0609 23.1078 41.5688 22.4897 40.0129 22.4897ZM40.0129 31.7085C39.3496 31.7085 38.7011 31.5118 38.1496 31.1433C37.598 30.7747 37.1681 30.2509 36.9143 29.6381C36.6604 29.0252 36.594 28.3509 36.7234 27.7003C36.8528 27.0497 37.1723 26.4521 37.6413 25.983C38.1104 25.514 38.708 25.1945 39.3586 25.0651C40.0092 24.9357 40.6835 25.0021 41.2964 25.256C41.9092 25.5098 42.433 25.9397 42.8016 26.4913C43.1701 27.0428 43.3668 27.6913 43.3668 28.3546C43.3669 28.7951 43.2802 29.2313 43.1117 29.6383C42.9432 30.0453 42.6962 30.4151 42.3847 30.7267C42.0733 31.0382 41.7035 31.2853 41.2966 31.4539C40.8896 31.6225 40.4534 31.7093 40.0129 31.7093V31.7085Z" fill="#F46101"/>
<path d="M40.0145 29.6578C40.7354 29.6578 41.3199 29.0733 41.3199 28.3523C41.3199 27.6314 40.7354 27.0469 40.0145 27.0469C39.2935 27.0469 38.709 27.6314 38.709 28.3523C38.709 29.0733 39.2935 29.6578 40.0145 29.6578Z" fill="#F46101"/>
</svg>
